<svg width="127" height="28" viewBox="0 0 127 28" fill="none" xmlns="http://www.w3.org/2000/svg">
<path d="M40.6302 23.5259H40V16.1609H40.6302C40.6302 18.1418 41.3338 19.8276 42.7412 21.2184C44.1696 22.6092 45.9025 23.3046 47.9401 23.3046C48.7803 23.3046 49.4525 23.0623 49.9566 22.5776C50.4817 22.0718 50.7443 21.408 50.7443 20.5862C50.7443 19.659 50.1456 18.8688 48.9483 18.2155C48.2972 17.8784 47.1734 17.3515 45.577 16.6351C43.9805 15.8975 42.8567 15.2759 42.2056 14.7701C40.9032 13.7586 40.3256 12.4205 40.4726 10.7557C40.6407 9.091 41.2708 7.80556 42.3631 6.89943C43.4554 5.97222 44.6842 5.50862 46.0496 5.50862C47.4359 5.50862 48.6753 5.69828 49.7676 6.07759C50.8808 6.43582 51.511 6.61494 51.658 6.61494C52.0782 6.61494 52.2882 6.24617 52.2882 5.50862H52.9184V11.2931H52.2882C52.2882 9.77586 51.7316 8.5431 50.6183 7.59483C49.505 6.62548 48.0766 6.14081 46.3332 6.14081C45.556 6.14081 44.9468 6.37261 44.5057 6.83621C44.0646 7.27874 43.844 7.77395 43.844 8.32184C43.844 8.86973 43.9175 9.29119 44.0646 9.58621C44.2116 9.88123 44.4637 10.1552 44.8208 10.408C45.1989 10.6398 45.5244 10.8295 45.7975 10.977C46.0706 11.1245 46.5012 11.3247 47.0894 11.5776C47.6985 11.8305 48.1186 12.0096 48.3497 12.1149C49.505 12.6418 50.1877 12.9579 50.3977 13.0632C50.6078 13.1475 50.9124 13.295 51.3115 13.5057C51.7106 13.7165 52.0046 13.9061 52.1937 14.0747C52.4037 14.2433 52.6663 14.454 52.9814 14.7069C53.2965 14.9598 53.5275 15.2232 53.6746 15.4971C53.8216 15.75 53.9686 16.045 54.1157 16.3822C54.4098 17.0565 54.5148 17.8467 54.4308 18.7529C54.2627 20.4598 53.6221 21.7663 52.5088 22.6724C51.4165 23.5575 49.9356 24 48.0661 24C46.3857 24 44.7157 23.568 43.0563 22.704C42.4892 22.409 42.069 22.2615 41.796 22.2615C41.0188 22.2615 40.6302 22.683 40.6302 23.5259Z" fill="#FFFFFF"/>
<path d="M69.4338 17.204H59.9183C60.1284 20.9128 61.5673 22.7672 64.235 22.7672C64.9491 22.7672 65.7578 22.5987 66.6611 22.2615C67.5853 21.9243 68.2575 21.4502 68.6776 20.8391L69.1187 21.1552C68.6566 21.9349 67.8689 22.5776 66.7556 23.0833C65.6423 23.5891 64.529 23.842 63.4157 23.842C62.3235 23.842 61.3362 23.7366 60.454 23.5259C59.5717 23.2941 58.7105 22.9148 57.8703 22.3879C57.0301 21.8611 56.3684 21.0709 55.8853 20.0172C55.4232 18.9636 55.1921 17.6887 55.1921 16.1925C55.1921 13.6427 55.8958 11.7567 57.3031 10.5345C58.7105 9.29119 60.412 8.66954 62.4075 8.66954C64.424 8.66954 66.0939 9.34387 67.4173 10.6925C68.7616 12.0412 69.4338 14.2117 69.4338 17.204ZM59.8868 16.5718H65.0227C65.0227 14.6331 64.8126 12.9368 64.3925 11.4828C63.9934 10.0287 63.3422 9.30172 62.439 9.30172C61.5357 9.30172 60.8846 10.0077 60.4855 11.4195C60.0864 12.8103 59.8868 14.4119 59.8868 16.2241V16.5718Z" fill="#FFFFFF"/>
<path d="M76.5923 22.8937H78.1677V23.5259H70.2906V22.8937H71.8661V9.61782H70.6057V8.98563H76.5923V22.8937ZM76.8759 4.81322C76.8759 5.57184 76.6028 6.2251 76.0566 6.77299C75.5315 7.29981 74.8803 7.56322 74.1031 7.56322C73.3469 7.56322 72.6958 7.29981 72.1496 6.77299C71.6035 6.2251 71.3304 5.57184 71.3304 4.81322C71.3304 4.03353 71.6035 3.36973 72.1496 2.82184C72.6958 2.27395 73.3469 2 74.1031 2C74.8803 2 75.5315 2.27395 76.0566 2.82184C76.6028 3.36973 76.8759 4.03353 76.8759 4.81322Z" fill="#FFFFFF"/>
<path d="M96.8476 22.8937V23.5259C93.9909 23.5259 92.0058 23.3257 90.8925 22.9253C89.8003 22.5038 88.7185 21.4713 87.6472 19.8276L85.6622 16.7615L85.2526 17.1408V22.8937H86.828V23.5259H78.9509V22.8937H80.5263V2.97989H78.9509V2.3477H85.2526V16.1925L91.8378 9.61782H89.2856V8.98563H95.2722V9.61782H92.783L89.0021 13.3793L92.783 19.069C94.4845 21.6188 95.8393 22.8937 96.8476 22.8937Z" fill="#FFFFFF"/>
<path d="M102.195 21.6293C102.657 22.6829 103.455 23.2098 104.589 23.2098C105.724 23.2098 106.532 22.6724 107.016 21.5977C107.499 20.523 107.74 18.7529 107.74 16.2874C107.74 13.8008 107.499 12.0201 107.016 10.9454C106.532 9.84962 105.724 9.30172 104.589 9.30172C103.455 9.30172 102.657 9.84962 102.195 10.9454C101.733 12.0201 101.502 13.8008 101.502 16.2874C101.502 18.7739 101.733 20.5546 102.195 21.6293ZM104.526 23.842C102.531 23.842 100.724 23.1887 99.107 21.8822C97.4896 20.5757 96.6809 18.7213 96.6809 16.319C96.6809 15.0335 96.912 13.8851 97.3741 12.8736C97.8572 11.8621 98.4874 11.0613 99.2646 10.4713C100.063 9.88123 100.914 9.4387 101.817 9.14368C102.72 8.82759 103.644 8.66954 104.589 8.66954C105.535 8.66954 106.459 8.82759 107.362 9.14368C108.286 9.4387 109.137 9.88123 109.914 10.4713C110.713 11.0613 111.353 11.8621 111.836 12.8736C112.319 13.8851 112.561 15.023 112.561 16.2874C112.561 17.5517 112.319 18.6791 111.836 19.6695C111.353 20.66 110.713 21.4502 109.914 22.0402C108.318 23.2414 106.522 23.842 104.526 23.842Z" fill="#FFFFFF"/>
<path d="M121.226 23.5259H113.349V22.8937H114.924V9.61782H113.349V8.98563H119.65V12.7471C119.839 11.7146 120.175 10.8716 120.659 10.2184C121.163 9.56513 121.709 9.13314 122.297 8.92241C122.906 8.71169 123.484 8.60632 124.03 8.60632C124.597 8.60632 125.133 8.71169 125.637 8.92241C126.162 9.11207 126.551 9.51245 126.803 10.1236C127.055 10.7136 127.065 11.3142 126.834 11.9253C126.603 12.5153 126.194 12.9368 125.605 13.1897C125.038 13.4425 124.513 13.4741 124.03 13.2845C123.547 13.0948 123.2 12.842 122.99 12.5259C122.78 12.1887 122.633 11.8726 122.549 11.5776C122.339 10.7979 122.055 10.408 121.698 10.408C121.299 10.408 120.858 11.1034 120.375 12.4943C119.892 13.864 119.65 15.318 119.65 16.8563V22.8937H121.226V23.5259Z" fill="#FFFFFF"/>
<path fill-rule="evenodd" clip-rule="evenodd" d="M4 0C1.79086 0 0 1.79086 0 4V16.7549V24C0 26.2091 1.79086 28 4 28H24C26.2091 28 28 26.2091 28 24V21.0101C27.5875 21.0219 27.1159 21.0279 26.585 21.0279C25.5932 21.0279 24.839 20.8626 24.3224 20.532C23.8059 20.2014 23.4133 19.8604 23.1447 19.5092L19.8283 15.0771L19.6424 14.8911C19.5804 14.8084 19.5184 14.7671 19.4564 14.7671H19.1465V13.6992H20.7313C22.1902 13.6992 23.3728 12.5166 23.3728 11.0577C23.3728 9.59885 22.1902 8.4162 20.7313 8.4162H19.1465V7.35962H20.8821C22.969 7.35962 24.3534 8.06215 25.0353 9.4672C25.2626 9.94243 25.3762 10.4383 25.3762 10.9549C25.3762 11.4715 25.2729 11.9157 25.0663 12.2876C24.8803 12.6595 24.6427 13.0005 24.3534 13.3104C23.7955 13.889 23.2067 14.2506 22.5868 14.3952L25.5622 18.2074C26.1821 19.0133 26.9156 19.5815 27.7627 19.9121C27.8438 19.9452 27.9229 19.9754 28 20.0027V4C28 1.79086 26.2091 0 24 0H4ZM0 16.7549C0.041325 16.6929 0.134306 16.6309 0.278943 16.569C0.444243 16.507 0.578549 16.476 0.681862 16.476C0.785174 16.476 0.847161 16.5276 0.867824 16.6309C0.971136 17.2921 1.3224 17.9843 1.92161 18.7075C2.62413 19.5134 3.39898 19.9163 4.24614 19.9163C4.74204 19.9163 5.18628 19.7716 5.57887 19.4824C5.97146 19.1724 6.16775 18.6559 6.16775 17.9327C6.16775 17.3128 5.78549 16.6619 5.02098 15.9801C4.71104 15.6908 4.38044 15.4325 4.02918 15.2052C3.67792 14.9779 3.34732 14.761 3.03738 14.5544C2.72745 14.3271 2.38652 14.0895 2.01459 13.8415C1.66333 13.5936 1.34306 13.3146 1.05379 13.0047C0.454574 12.3228 0.154969 11.5067 0.154969 10.5562C0.154969 9.54372 0.619874 8.66556 1.54969 7.92171C2.41751 7.21919 3.40931 6.86792 4.52508 6.86792C5.12429 6.86792 5.68218 6.92991 6.19874 7.05389C6.73597 7.17786 7.31452 7.30184 7.93439 7.42581C7.99638 7.96304 8.0377 8.51059 8.05836 9.06848C8.09969 9.62637 8.14102 10.2152 8.18234 10.8351C8.09969 10.9178 8.02737 10.9591 7.96538 10.9591C7.5728 10.9591 7.36617 10.9074 7.34551 10.8041C7.2422 10.1223 6.96325 9.4714 6.50868 8.85152C5.97146 8.10767 5.34125 7.73575 4.61806 7.73575C4.20481 7.73575 3.81223 7.85972 3.4403 8.10767C3.06838 8.35562 2.88242 8.82053 2.88242 9.50239C2.88242 10.3909 3.86388 11.486 5.82682 12.7877C6.15742 13.015 6.49835 13.2526 6.84961 13.5006C7.22153 13.7279 7.55213 13.9965 7.84141 14.3064C8.50261 15.0503 8.83321 15.9491 8.83321 17.0029C8.83321 18.098 8.3683 19.0071 7.43849 19.7303C6.55 20.4328 5.53754 20.7841 4.40111 20.7841C3.20268 20.7841 1.90095 20.5981 0.495899 20.2262C0.289275 19.1311 0.154969 18.3149 0.0929812 17.7777C0.0516562 17.2405 0.0206625 16.8996 0 16.7549ZM9.10742 14.0233C10.1405 13.1968 10.8327 12.5976 11.184 12.2256L12.0828 11.3578C12.7027 10.7173 13.3122 10.0148 13.9114 9.25024C14.0354 9.08494 14.0974 8.85765 14.0974 8.56838C14.0974 8.25844 13.7152 8.10347 12.9506 8.10347C12.8267 7.85552 12.8163 7.60757 12.9196 7.35962L15.5851 7.51459C16.3083 7.51459 17.1555 7.46294 18.1266 7.35962C18.1679 7.44227 18.1782 7.56625 18.1576 7.73155C18.1576 7.89685 18.1266 8.01049 18.0646 8.07248C17.6307 8.07248 17.1864 8.17579 16.7319 8.38242C16.2773 8.58904 15.957 8.78533 15.7711 8.9713L11.9278 12.9385C11.8245 13.0625 11.8039 13.1761 11.8659 13.2794L15.5541 18.2384C16.1946 19.0649 16.9178 19.6331 17.7237 19.9431C18.2196 20.129 18.6225 20.222 18.9324 20.222C18.9738 20.3047 18.9841 20.4493 18.9634 20.6559C18.9634 20.8419 18.9531 20.9555 18.9324 20.9969C18.3539 21.0382 17.5687 21.0588 16.5769 21.0588C15.5851 21.0588 14.8206 20.8935 14.2834 20.5629C13.7668 20.2323 13.3846 19.8914 13.1366 19.5402L9.54133 14.7361C9.47935 14.6741 9.40703 14.6431 9.32438 14.6431C9.24173 14.6431 9.16941 14.6845 9.10742 14.7671V14.0233Z" fill="#FFFFFF"/>
</svg>
