<svg width="458" height="89" viewBox="0 0 458 89" fill="none" xmlns="http://www.w3.org/2000/svg">
<path d="M115.379 86.2379H112.883V57.0315H115.379C115.379 64.8867 118.167 71.572 123.743 77.0874C129.402 82.6028 136.267 85.3605 144.339 85.3605C147.668 85.3605 150.331 84.3995 152.328 82.4774C154.409 80.4719 155.449 77.8395 155.449 74.5804C155.449 70.9035 153.077 67.7698 148.334 65.1792C145.754 63.8422 141.302 61.753 134.977 58.9118C128.653 55.9869 124.201 53.5217 121.621 51.5161C116.461 47.505 114.173 42.1985 114.755 35.5968C115.421 28.995 117.918 23.8975 122.245 20.3042C126.572 16.6272 131.441 14.7888 136.85 14.7888C142.342 14.7888 147.252 15.5409 151.579 17.0451C155.99 18.4657 158.487 19.176 159.069 19.176C160.733 19.176 161.566 17.7136 161.566 14.7888H164.062V37.7277H161.566C161.566 31.7109 159.36 26.8223 154.95 23.0618C150.539 19.2178 144.88 17.2958 137.973 17.2958C134.894 17.2958 132.481 18.215 130.733 20.0535C128.986 21.8083 128.112 23.7722 128.112 25.9449C128.112 28.1176 128.403 29.7889 128.986 30.9588C129.568 32.1288 130.567 33.2151 131.981 34.2179C133.479 35.1372 134.769 35.8893 135.851 36.4742C136.933 37.0592 138.639 37.8531 140.969 38.8559C143.382 39.8587 145.047 40.569 145.962 40.9868C150.539 43.076 153.244 44.3294 154.076 44.7473C154.908 45.0815 156.115 45.6665 157.696 46.5022C159.277 47.3378 160.442 48.0899 161.191 48.7585C162.023 49.427 163.064 50.2627 164.312 51.2654C165.56 52.2682 166.475 53.3128 167.058 54.3992C167.641 55.402 168.223 56.5719 168.806 57.909C169.971 60.5831 170.387 63.7168 170.054 67.3102C169.388 74.079 166.85 79.2601 162.439 82.8535C158.112 86.3633 152.245 88.1182 144.839 88.1182C138.181 88.1182 131.565 86.4051 124.991 82.9788C122.744 81.8089 121.08 81.2239 119.998 81.2239C116.919 81.2239 115.379 82.8953 115.379 86.2379Z" fill="#0B44D8"/>
<path d="M229.492 61.168H191.794C192.626 75.8757 198.327 83.2295 208.896 83.2295C211.725 83.2295 214.929 82.561 218.507 81.2239C222.169 79.8869 224.832 78.0066 226.496 75.5832L228.244 76.8367C226.413 79.9287 223.292 82.4774 218.882 84.483C214.471 86.4886 210.061 87.4914 205.65 87.4914C201.323 87.4914 197.411 87.0736 193.916 86.2379C190.421 85.3187 187.009 83.8145 183.68 81.7253C180.352 79.6362 177.73 76.5025 175.816 72.3241C173.985 68.1458 173.07 63.0901 173.07 57.1569C173.07 47.0454 175.858 39.5662 181.433 34.7193C187.009 29.7889 193.75 27.3237 201.656 27.3237C209.645 27.3237 216.26 29.9978 221.503 35.3461C226.829 40.6943 229.492 49.3016 229.492 61.168ZM191.669 58.6611H212.016C212.016 50.973 211.184 44.2459 209.52 38.4798C207.939 32.7137 205.359 29.8307 201.78 29.8307C198.202 29.8307 195.622 32.6302 194.041 38.2291C192.46 43.7445 191.669 50.0955 191.669 57.2822V58.6611Z" fill="#0B44D8"/>
<path d="M257.852 83.7309H264.094V86.2379H232.887V83.7309H239.128V31.0842H234.135V28.5772H257.852V83.7309ZM258.976 12.0311C258.976 15.0395 257.894 17.63 255.73 19.8028C253.65 21.8919 251.07 22.9365 247.991 22.9365C244.995 22.9365 242.415 21.8919 240.251 19.8028C238.088 17.63 237.006 15.0395 237.006 12.0311C237.006 8.93915 238.088 6.30681 240.251 4.13409C242.415 1.96136 244.995 0.875 247.991 0.875C251.07 0.875 253.65 1.96136 255.73 4.13409C257.894 6.30681 258.976 8.93915 258.976 12.0311Z" fill="#0B44D8"/>
<path d="M338.099 83.7309V86.2379C326.781 86.2379 318.917 85.444 314.506 83.8563C310.179 82.185 305.893 78.0902 301.649 71.572L293.785 59.4132L292.162 60.9173V83.7309H298.403V86.2379H267.197V83.7309H273.438V4.76083H267.197V2.25385H292.162V57.1569L318.251 31.0842H308.14V28.5772H331.857V31.0842H321.996L307.017 46.0008L321.996 68.5637C328.737 78.6752 334.104 83.7309 338.099 83.7309Z" fill="#0B44D8"/>
<path d="M359.283 78.717C361.114 82.8953 364.276 84.9844 368.77 84.9844C373.264 84.9844 376.468 82.8535 378.382 78.5916C380.296 74.3297 381.253 67.3102 381.253 57.5329C381.253 47.6721 380.296 40.6108 378.382 36.3489C376.468 32.0034 373.264 29.8307 368.77 29.8307C364.276 29.8307 361.114 32.0034 359.283 36.3489C357.452 40.6108 356.537 47.6721 356.537 57.5329C356.537 67.3937 357.452 74.4551 359.283 78.717ZM368.52 87.4914C360.615 87.4914 353.458 84.9009 347.05 79.7198C340.642 74.5386 337.438 67.1848 337.438 57.6583C337.438 52.5607 338.354 48.0064 340.184 43.9952C342.098 39.984 344.595 36.8085 347.674 34.4686C350.836 32.1288 354.207 30.3739 357.785 29.204C361.363 27.9505 365.025 27.3237 368.77 27.3237C372.515 27.3237 376.176 27.9505 379.755 29.204C383.416 30.3739 386.787 32.1288 389.866 34.4686C393.028 36.8085 395.566 39.984 397.48 43.9952C399.394 48.0064 400.351 52.5189 400.351 57.5329C400.351 62.5469 399.394 67.0177 397.48 70.9453C395.566 74.8729 393.028 78.0066 389.866 80.3465C383.541 85.1098 376.426 87.4914 368.52 87.4914Z" fill="#0B44D8"/>
<path d="M434.679 86.2379H403.472V83.7309H409.713V31.0842H403.472V28.5772H428.437V43.4938C429.186 39.399 430.518 36.0564 432.432 33.4658C434.429 30.8753 436.593 29.1622 438.923 28.3265C441.336 27.4908 443.625 27.073 445.788 27.073C448.035 27.073 450.157 27.4908 452.155 28.3265C454.235 29.0786 455.775 30.6664 456.773 33.0898C457.772 35.4296 457.813 37.8113 456.898 40.2347C455.983 42.5746 454.36 44.2459 452.03 45.2487C449.783 46.2515 447.702 46.3768 445.788 45.6247C443.874 44.8726 442.501 43.8698 441.669 42.6163C440.837 41.2793 440.254 40.0258 439.921 38.8559C439.089 35.7639 437.966 34.2179 436.551 34.2179C434.97 34.2179 433.222 36.9756 431.308 42.491C429.394 47.9228 428.437 53.6889 428.437 59.7892V83.7309H434.679V86.2379Z" fill="#0B44D8"/>
<path fill-rule="evenodd" clip-rule="evenodd" d="M29.6052 2.35069C13.29 7.92633 1.29994 22.8328 -2.82098e-07 40.7051H22.6917C25.0089 40.7051 27.3167 40.5779 29.6052 40.3266V2.35069ZM0.26536 49.762C2.47843 66.4744 14.0848 80.2223 29.6052 85.5263V51.9632C24.2387 50.51 18.6752 49.762 13.0546 49.762H0.26536ZM38.6514 87.576C40.3471 87.7748 42.0723 87.877 43.8213 87.877C54.9106 87.877 65.0403 83.7689 72.7718 76.9916L48.4767 60.5961C45.3542 58.489 42.0651 56.6746 38.6514 55.166V87.576ZM78.9937 70.2771C84.4985 62.9378 87.7598 53.819 87.7598 43.9385C87.7598 36.9 86.1049 30.2481 83.1629 24.3507L62.211 38.0082C56.1007 41.9912 49.4569 45.0062 42.5145 46.9835C46.3421 48.6893 50.0314 50.732 53.537 53.0977L78.9937 70.2771ZM78.3119 16.7144C70.2648 6.53341 57.806 0 43.8213 0C42.0723 0 40.3471 0.102198 38.6514 0.300947V38.6609C45.2276 36.9481 51.5194 34.1791 57.2711 30.4299L78.3119 16.7144Z" fill="#0B44D8"/>
</svg>
