<svg width="24" height="24" viewBox="0 0 24 24" fill="none" xmlns="http://www.w3.org/2000/svg">
    <path d="M12 23.0016L8.975 19.9766H4.5C4.1 19.9766 3.75 19.8266 3.45 19.5266C3.15 19.2266 3 18.8766 3 18.4766V3.47656C3 3.0599 3.15 2.70573 3.45 2.41406C3.75 2.1224 4.1 1.97656 4.5 1.97656H19.5C19.9 1.97656 20.25 2.1224 20.55 2.41406C20.85 2.70573 21 3.0599 21 3.47656V18.4766C21 18.8766 20.85 19.2266 20.55 19.5266C20.25 19.8266 19.9 19.9766 19.5 19.9766H15.025L12 23.0016ZM4.5 17.5266C5.5 16.6099 6.63333 15.8641 7.9 15.2891C9.16667 14.7141 10.5333 14.4266 12 14.4266C13.4667 14.4266 14.8333 14.7141 16.1 15.2891C17.3667 15.8641 18.5 16.6099 19.5 17.5266V3.47656H4.5V17.5266ZM12.05 12.4516C13.0167 12.4516 13.8333 12.1182 14.5 11.4516C15.1667 10.7849 15.5 9.96823 15.5 9.00156C15.5 8.0349 15.1667 7.21823 14.5 6.55156C13.8333 5.8849 13.0167 5.55156 12.05 5.55156C11.0833 5.55156 10.2667 5.8849 9.6 6.55156C8.93333 7.21823 8.6 8.0349 8.6 9.00156C8.6 9.96823 8.93333 10.7849 9.6 11.4516C10.2667 12.1182 11.0833 12.4516 12.05 12.4516ZM12.05 10.9516C11.5167 10.9516 11.0583 10.7599 10.675 10.3766C10.2917 9.99323 10.1 9.5349 10.1 9.00156C10.1 8.45156 10.2917 7.98906 10.675 7.61406C11.0583 7.23906 11.5167 7.05156 12.05 7.05156C12.6 7.05156 13.0625 7.23906 13.4375 7.61406C13.8125 7.98906 14 8.45156 14 9.00156C14 9.5349 13.8125 9.99323 13.4375 10.3766C13.0625 10.7599 12.6 10.9516 12.05 10.9516ZM12 20.7766L14.3 18.4766H18.125V18.2516C17.225 17.4849 16.2625 16.9057 15.2375 16.5141C14.2125 16.1224 13.1333 15.9266 12 15.9266C10.8833 15.9266 9.80833 16.1224 8.775 16.5141C7.74167 16.9057 6.775 17.4849 5.875 18.2516V18.4766H9.7L12 20.7766Z" fill="#1C1C1C" />
</svg>
