<svg width="30" height="22" viewBox="0 0 30 22" fill="none" xmlns="http://www.w3.org/2000/svg">
    <path d="M12.7333 17.7005L20.3999 10.0339L19.0666 8.70052L12.7666 15.0005L9.43325 11.6672L8.06659 13.0339L12.7333 17.7005ZM7.36659 21.6672C5.41103 21.6672 3.74992 20.9839 2.38325 19.6172C1.01659 18.2505 0.333252 16.5894 0.333252 14.6339C0.333252 12.9005 0.888808 11.3783 1.99992 10.0672C3.11103 8.75608 4.52214 7.96719 6.23325 7.70052C6.6777 5.54496 7.72214 3.78385 9.36659 2.41719C11.011 1.05052 12.911 0.367187 15.0666 0.367188C17.5555 0.367188 19.6555 1.27274 21.3666 3.08385C23.0777 4.89497 23.9333 7.06719 23.9333 9.60052V10.4005C25.5333 10.3561 26.8888 10.8727 27.9999 11.9505C29.111 13.0283 29.6666 14.3894 29.6666 16.0339C29.6666 17.5672 29.111 18.8894 27.9999 20.0005C26.8888 21.1116 25.5666 21.6672 24.0333 21.6672H7.36659ZM7.36659 19.6672H24.0333C25.0333 19.6672 25.8888 19.3116 26.5999 18.6005C27.311 17.8894 27.6666 17.0339 27.6666 16.0339C27.6666 15.0339 27.311 14.1783 26.5999 13.4672C25.8888 12.7561 25.0333 12.4005 24.0333 12.4005H21.9333V9.60052C21.9333 7.5783 21.2555 5.86719 19.8999 4.46719C18.5444 3.06719 16.8888 2.36719 14.9333 2.36719C12.9777 2.36719 11.3166 3.06719 9.94992 4.46719C8.58325 5.86719 7.89992 7.5783 7.89992 9.60052H7.26659C5.88881 9.60052 4.72214 10.0839 3.76659 11.0505C2.81103 12.0172 2.33325 13.2116 2.33325 14.6339C2.33325 16.0339 2.82214 17.2227 3.79992 18.2005C4.7777 19.1783 5.96659 19.6672 7.36659 19.6672Z" fill="#F1F1F1"/>
    </svg>
    