<svg width="11" height="10" viewBox="0 0 11 10" fill="none" xmlns="http://www.w3.org/2000/svg">
<path d="M5.45 10C5.35 10 5.25417 9.98542 5.1625 9.95625C5.07083 9.92708 4.98333 9.87083 4.9 9.7875L0.2125 5.1C0.129167 5.01667 0.0729167 4.92917 0.04375 4.8375C0.0145834 4.74583 0 4.65 0 4.55V0.75C0 0.533333 0.0708333 0.354167 0.2125 0.2125C0.354167 0.0708333 0.533333 0 0.75 0H4.55C4.65 0 4.75 0.0145834 4.85 0.04375C4.95 0.0729167 5.04167 0.129167 5.125 0.2125L9.7875 4.875C9.95417 5.04167 10.0375 5.22708 10.0375 5.43125C10.0375 5.63542 9.95417 5.82083 9.7875 5.9875L5.9875 9.7875C5.92083 9.85417 5.83958 9.90625 5.74375 9.94375C5.64792 9.98125 5.55 10 5.45 10ZM5.475 9.275L9.275 5.475L4.55 0.75H0.75V4.55L5.475 9.275ZM2.0625 2.7C2.2375 2.7 2.38958 2.63542 2.51875 2.50625C2.64792 2.37708 2.7125 2.225 2.7125 2.05C2.7125 1.875 2.64792 1.72292 2.51875 1.59375C2.38958 1.46458 2.2375 1.4 2.0625 1.4C1.8875 1.4 1.73542 1.46458 1.60625 1.59375C1.47708 1.72292 1.4125 1.875 1.4125 2.05C1.4125 2.225 1.47708 2.37708 1.60625 2.50625C1.73542 2.63542 1.8875 2.7 2.0625 2.7Z" fill="#EB1260"/>
</svg>
