<svg width="16" height="18" viewBox="0 0 16 18" fill="none" xmlns="http://www.w3.org/2000/svg">
<path d="M5.025 13.525L8 10.5L11 13.525L12.175 12.325L9.2 9.3L12.175 6.275L11 5.075L8 8.1L5.025 5.075L3.825 6.275L6.825 9.3L3.825 12.325L5.025 13.525ZM2.525 18C2.125 18 1.775 17.85 1.475 17.55C1.175 17.25 1.025 16.9 1.025 16.5V2.25H0V0.75H4.7V0H11.3V0.75H16V2.25H14.975V16.5C14.975 16.9 14.825 17.25 14.525 17.55C14.225 17.85 13.875 18 13.475 18H2.525ZM13.475 2.25H2.525V16.5H13.475V2.25ZM2.525 2.25V16.5V2.25Z" fill="#EB1260"/>
</svg>
