<svg width="19" height="19" viewBox="0 0 19 19" fill="none" xmlns="http://www.w3.org/2000/svg">
<path d="M1.5 17.5008H2.6L13.675 6.42578L12.575 5.32578L1.5 16.4008V17.5008ZM16.85 5.35078L13.65 2.15078L14.7 1.10078C14.9833 0.817448 15.3333 0.675781 15.75 0.675781C16.1667 0.675781 16.5167 0.817448 16.8 1.10078L17.9 2.20078C18.1833 2.48411 18.325 2.83411 18.325 3.25078C18.325 3.66745 18.1833 4.01745 17.9 4.30078L16.85 5.35078ZM15.8 6.40078L3.2 19.0008H0V15.8008L12.6 3.20078L15.8 6.40078ZM13.125 5.87578L12.575 5.32578L13.675 6.42578L13.125 5.87578Z" fill="#1C1C1C"/>
</svg>
