<svg width="12" height="12" viewBox="0 0 12 12" fill="none" xmlns="http://www.w3.org/2000/svg">
<path d="M1.75 9.75V3.5875V9.75ZM1.75 10.5C1.55 10.5 1.375 10.425 1.225 10.275C1.075 10.125 1 9.95 1 9.75V3.5875C1 3.3875 1.075 3.2125 1.225 3.0625C1.375 2.9125 1.55 2.8375 1.75 2.8375H4.125V1.75C4.125 1.55833 4.2 1.38542 4.35 1.23125C4.5 1.07708 4.675 1 4.875 1H7.125C7.325 1 7.5 1.07708 7.65 1.23125C7.8 1.38542 7.875 1.55833 7.875 1.75V2.8375H10.25C10.45 2.8375 10.625 2.9125 10.775 3.0625C10.925 3.2125 11 3.3875 11 3.5875V6.5625C10.8833 6.47083 10.7646 6.3875 10.6438 6.3125C10.5229 6.2375 10.3917 6.16667 10.25 6.1V3.5875H1.75V9.75625V9.75H5.925C5.95833 9.88333 6 10.0125 6.05 10.1375C6.1 10.2625 6.15833 10.3833 6.225 10.5H1.75ZM4.875 2.8375H7.125V1.75H4.875V2.8375ZM9 11.4125C8.34167 11.4125 7.775 11.175 7.3 10.7C6.825 10.225 6.5875 9.65833 6.5875 9C6.5875 8.34167 6.825 7.775 7.3 7.3C7.775 6.825 8.34167 6.5875 9 6.5875C9.65833 6.5875 10.225 6.825 10.7 7.3C11.175 7.775 11.4125 8.34167 11.4125 9C11.4125 9.65833 11.175 10.225 10.7 10.7C10.225 11.175 9.65833 11.4125 9 11.4125ZM9.925 10.2625L10.2625 9.925L9.2125 8.975V7.425H8.6875V9.125L9.925 10.2625Z" fill="#1C1C1C"/>
</svg>
