<svg width="12" height="12" viewBox="0 0 16 16" fill="none" xmlns="http://www.w3.org/2000/svg">
<path d="M8 11.0334C9.15556 10.1 10.0278 9.20282 10.6167 8.34171C11.2056 7.4806 11.5 6.67782 11.5 5.93337C11.5 5.27782 11.3806 4.72226 11.1417 4.26671C10.9028 3.81115 10.6083 3.43893 10.2583 3.15004C9.90833 2.86115 9.52778 2.65282 9.11667 2.52504C8.70556 2.39726 8.33333 2.33337 8 2.33337C7.66667 2.33337 7.29444 2.39726 6.88333 2.52504C6.47222 2.65282 6.09167 2.86115 5.74167 3.15004C5.39167 3.43893 5.09722 3.81115 4.85833 4.26671C4.61944 4.72226 4.5 5.27782 4.5 5.93337C4.5 6.67782 4.79444 7.4806 5.38333 8.34171C5.97222 9.20282 6.84444 10.1 8 11.0334ZM8 12.3C6.47778 11.1556 5.34722 10.0612 4.60833 9.01671C3.86944 7.97226 3.5 6.94448 3.5 5.93337C3.5 5.17782 3.63611 4.51393 3.90833 3.94171C4.18056 3.36948 4.53333 2.88893 4.96667 2.50004C5.4 2.11115 5.88333 1.81949 6.41667 1.62504C6.95 1.4306 7.47778 1.33337 8 1.33337C8.52222 1.33337 9.05 1.4306 9.58333 1.62504C10.1167 1.81949 10.6 2.11115 11.0333 2.50004C11.4667 2.88893 11.8194 3.36948 12.0917 3.94171C12.3639 4.51393 12.5 5.17782 12.5 5.93337C12.5 6.94448 12.1306 7.97226 11.3917 9.01671C10.6528 10.0612 9.52222 11.1556 8 12.3ZM8 7.00004C8.32222 7.00004 8.59722 6.88615 8.825 6.65837C9.05278 6.4306 9.16667 6.1556 9.16667 5.83337C9.16667 5.51115 9.05278 5.23615 8.825 5.00837C8.59722 4.7806 8.32222 4.66671 8 4.66671C7.67778 4.66671 7.40278 4.7806 7.175 5.00837C6.94722 5.23615 6.83333 5.51115 6.83333 5.83337C6.83333 6.1556 6.94722 6.4306 7.175 6.65837C7.40278 6.88615 7.67778 7.00004 8 7.00004ZM3.5 14.6667V13.6667H12.5V14.6667H3.5Z" fill="#0578FF"/>
</svg>
