<svg width="36" height="36" viewBox="0 0 36 36" fill="none" xmlns="http://www.w3.org/2000/svg">
<path d="M28.95 12.1869L27.3375 8.43691L23.4375 6.71191L27.3375 5.02441L28.95 1.46191L30.5625 5.02441L34.4625 6.71191L30.5625 8.43691L28.95 12.1869ZM28.95 34.4994L27.3375 30.8994L23.4375 29.2119L27.3375 27.5244L28.95 23.7369L30.5625 27.5244L34.4625 29.2119L30.5625 30.8994L28.95 34.4994ZM12.4875 28.7244L9.0375 21.3369L1.5 17.9619L9.0375 14.5869L12.4875 7.23691L15.975 14.5869L23.475 17.9619L15.975 21.3369L12.4875 28.7244ZM12.4875 23.1744L14.2875 19.5744L17.9625 17.9619L14.2875 16.3494L12.4875 12.7494L10.725 16.3494L7.0125 17.9619L10.725 19.5744L12.4875 23.1744Z" fill="#1C1C1C"/>
</svg>
