<svg width="36" height="36" viewBox="0 0 36 36" fill="none" xmlns="http://www.w3.org/2000/svg">
<path d="M6.75 31.5C6.15 31.5 5.625 31.275 5.175 30.825C4.725 30.375 4.5 29.85 4.5 29.25V6.75C4.5 6.15 4.725 5.625 5.175 5.175C5.625 4.725 6.15 4.5 6.75 4.5H29.25C29.85 4.5 30.375 4.725 30.825 5.175C31.275 5.625 31.5 6.15 31.5 6.75V29.25C31.5 29.85 31.275 30.375 30.825 30.825C30.375 31.275 29.85 31.5 29.25 31.5H6.75ZM6.75 29.25H29.25V24.15H23.775C23.125 25.15 22.2812 25.9188 21.2438 26.4563C20.2063 26.9938 19.125 27.2625 18 27.2625C16.875 27.2625 15.7937 26.9938 14.7562 26.4563C13.7187 25.9188 12.875 25.15 12.225 24.15H6.75V29.25ZM18 25.0125C19.025 25.0125 19.95 24.7188 20.775 24.1312C21.6 23.5437 22.3 22.8 22.875 21.9H29.25V6.75H6.75V21.9H13.125C13.7 22.8 14.4 23.5437 15.225 24.1312C16.05 24.7188 16.975 25.0125 18 25.0125ZM18 20.175L12.2625 14.4375L13.875 12.825L16.875 15.825V8.7375H19.125V15.825L22.125 12.825L23.7375 14.4375L18 20.175ZM6.75 29.25H29.25H6.75Z" fill="#1C1C1C"/>
</svg>
