<svg width="12" height="12" viewBox="0 0 12 12" fill="none" xmlns="http://www.w3.org/2000/svg">
<path d="M8.15 6.8C8.35833 6.8 8.54375 6.71875 8.70625 6.55625C8.86875 6.39375 8.95 6.20417 8.95 5.9875C8.95 5.77917 8.86875 5.59583 8.70625 5.4375C8.54375 5.27917 8.35833 5.2 8.15 5.2C7.94167 5.2 7.75625 5.27917 7.59375 5.4375C7.43125 5.59583 7.35 5.77917 7.35 5.9875C7.35 6.20417 7.43125 6.39375 7.59375 6.55625C7.75625 6.71875 7.94167 6.8 8.15 6.8ZM2.25 9.0875C2.25 9.0875 2.25 9.19792 2.25 9.41875C2.25 9.63958 2.25 9.75 2.25 9.75V2.25C2.25 2.25 2.25 2.3625 2.25 2.5875C2.25 2.8125 2.25 2.925 2.25 2.925C2.25 2.925 2.25 3.08333 2.25 3.4C2.25 3.71667 2.25 4.1125 2.25 4.5875V7.425C2.25 7.9 2.25 8.29583 2.25 8.6125C2.25 8.92917 2.25 9.0875 2.25 9.0875ZM2.25 10.5C2.05833 10.5 1.88542 10.425 1.73125 10.275C1.57708 10.125 1.5 9.95 1.5 9.75V2.25C1.5 2.05833 1.57708 1.88542 1.73125 1.73125C1.88542 1.57708 2.05833 1.5 2.25 1.5H9.75C9.95 1.5 10.125 1.57708 10.275 1.73125C10.425 1.88542 10.5 2.05833 10.5 2.25V3.925H9.75V2.25H2.25V9.75H9.75V8.0875H10.5V9.75C10.5 9.95 10.425 10.125 10.275 10.275C10.125 10.425 9.95 10.5 9.75 10.5H2.25ZM6.725 8.3375C6.44167 8.3375 6.21667 8.25417 6.05 8.0875C5.88333 7.92083 5.8 7.7 5.8 7.425V4.5875C5.8 4.30417 5.88333 4.08125 6.05 3.91875C6.21667 3.75625 6.44167 3.675 6.725 3.675H10.1C10.3833 3.675 10.6083 3.75625 10.775 3.91875C10.9417 4.08125 11.025 4.30417 11.025 4.5875V7.425C11.025 7.7 10.9417 7.92083 10.775 8.0875C10.6083 8.25417 10.3833 8.3375 10.1 8.3375H6.725ZM10.275 7.5875V4.425H6.55V7.5875H10.275Z" fill="#EB1260"/>
</svg>
