<svg width="14" height="18" viewBox="0 0 14 18" fill="none" xmlns="http://www.w3.org/2000/svg">
<path d="M6.41659 14.791H7.66659V10.6035L9.37492 12.3118L10.2499 11.4368L6.99992 8.27018L3.79158 11.4785L4.66658 12.3535L6.41659 10.6035V14.791ZM1.58325 17.3327C1.24992 17.3327 0.958252 17.2077 0.708252 16.9577C0.458252 16.7077 0.333252 16.416 0.333252 16.0827V1.91602C0.333252 1.58268 0.458252 1.29102 0.708252 1.04102C0.958252 0.791016 1.24992 0.666016 1.58325 0.666016H9.10408L13.6666 5.22852V16.0827C13.6666 16.416 13.5416 16.7077 13.2916 16.9577C13.0416 17.2077 12.7499 17.3327 12.4166 17.3327H1.58325ZM8.47908 5.79102V1.91602H1.58325V16.0827H12.4166V5.79102H8.47908ZM1.58325 1.91602V5.79102V1.91602V16.0827V1.91602Z" fill="#1C1C1C"/>
</svg>
