<svg width="30" height="25" viewBox="0 0 30 25" fill="none" xmlns="http://www.w3.org/2000/svg">
<path d="M0 24.0008V20.4758C0 19.6258 0.2125 18.8445 0.6375 18.132C1.0625 17.4195 1.7 16.8758 2.55 16.5008C4.35 15.7008 6 15.1258 7.5 14.7758C9 14.4258 10.5 14.2508 12 14.2508C12.725 14.2508 13.4938 14.2945 14.3063 14.382C15.1188 14.4695 15.95 14.6258 16.8 14.8508L14.9625 16.6883C14.4625 16.6383 13.9688 16.5945 13.4813 16.557C12.9938 16.5195 12.5 16.5008 12 16.5008C10.55 16.5008 9.23125 16.632 8.04375 16.8945C6.85625 17.157 5.325 17.7008 3.45 18.5258C3.025 18.7258 2.71875 19.0133 2.53125 19.3883C2.34375 19.7633 2.25 20.1258 2.25 20.4758V21.7508H14.2125L16.4625 24.0008H0ZM20.4375 24.6008L15.15 19.3133L16.725 17.7383L20.4375 21.4508L28.425 13.4633L30 15.0383L20.4375 24.6008ZM12 11.9258C10.35 11.9258 9 11.4008 7.95 10.3508C6.9 9.30078 6.375 7.95078 6.375 6.30078C6.375 4.65078 6.9 3.30078 7.95 2.25078C9 1.20078 10.35 0.675781 12 0.675781C13.65 0.675781 15 1.20078 16.05 2.25078C17.1 3.30078 17.625 4.65078 17.625 6.30078C17.625 7.95078 17.1 9.30078 16.05 10.3508C15 11.4008 13.65 11.9258 12 11.9258ZM12 9.67578C12.975 9.67578 13.7812 9.35703 14.4188 8.71953C15.0563 8.08203 15.375 7.27578 15.375 6.30078C15.375 5.32578 15.0563 4.51953 14.4188 3.88203C13.7812 3.24453 12.975 2.92578 12 2.92578C11.025 2.92578 10.2188 3.24453 9.58125 3.88203C8.94375 4.51953 8.625 5.32578 8.625 6.30078C8.625 7.27578 8.94375 8.08203 9.58125 8.71953C10.2188 9.35703 11.025 9.67578 12 9.67578Z" fill="#1C1C1C"/>
</svg>
