<svg width="18" height="10" viewBox="0 0 18 10" fill="none" xmlns="http://www.w3.org/2000/svg">
<path d="M8.37533 9.16732H4.83366C3.6531 9.16732 2.66352 8.76801 1.86491 7.9694C1.0663 7.17079 0.666992 6.18121 0.666992 5.00065C0.666992 3.8201 1.0663 2.83051 1.86491 2.0319C2.66352 1.23329 3.6531 0.833984 4.83366 0.833984H8.37533V2.08398H4.83366C4.00033 2.08398 3.30588 2.36176 2.75033 2.91732C2.19477 3.47287 1.91699 4.16732 1.91699 5.00065C1.91699 5.83398 2.19477 6.52843 2.75033 7.08398C3.30588 7.63954 4.00033 7.91732 4.83366 7.91732H8.37533V9.16732ZM5.77116 5.62565V4.37565H12.2295V5.62565H5.77116ZM9.62533 9.16732V7.91732H13.167C14.0003 7.91732 14.6948 7.63954 15.2503 7.08398C15.8059 6.52843 16.0837 5.83398 16.0837 5.00065C16.0837 4.16732 15.8059 3.47287 15.2503 2.91732C14.6948 2.36176 14.0003 2.08398 13.167 2.08398H9.62533V0.833984H13.167C14.3475 0.833984 15.3371 1.23329 16.1357 2.0319C16.9344 2.83051 17.3337 3.8201 17.3337 5.00065C17.3337 6.18121 16.9344 7.17079 16.1357 7.9694C15.3371 8.76801 14.3475 9.16732 13.167 9.16732H9.62533Z" fill="#1C1C1C"/>
</svg>
