<svg width="18" height="18" viewBox="0 0 18 18" fill="none" xmlns="http://www.w3.org/2000/svg">
<path d="M5.87435 13.0013L8.99935 9.8763L12.1243 13.0013L12.9993 12.1263L9.87435 9.0013L12.9993 5.8763L12.1243 5.0013L8.99935 8.1263L5.87435 5.0013L4.99935 5.8763L8.12435 9.0013L4.99935 12.1263L5.87435 13.0013ZM8.99935 17.3346C7.86046 17.3346 6.78407 17.1159 5.77018 16.6784C4.75629 16.2409 3.87088 15.6437 3.11393 14.8867C2.35699 14.1298 1.75977 13.2444 1.32227 12.2305C0.884766 11.2166 0.666016 10.1402 0.666016 9.0013C0.666016 7.84852 0.884766 6.76519 1.32227 5.7513C1.75977 4.73741 2.35699 3.85547 3.11393 3.10547C3.87088 2.35547 4.75629 1.76172 5.77018 1.32422C6.78407 0.886719 7.86046 0.667969 8.99935 0.667969C10.1521 0.667969 11.2355 0.886719 12.2493 1.32422C13.2632 1.76172 14.1452 2.35547 14.8952 3.10547C15.6452 3.85547 16.2389 4.73741 16.6764 5.7513C17.1139 6.76519 17.3327 7.84852 17.3327 9.0013C17.3327 10.1402 17.1139 11.2166 16.6764 12.2305C16.2389 13.2444 15.6452 14.1298 14.8952 14.8867C14.1452 15.6437 13.2632 16.2409 12.2493 16.6784C11.2355 17.1159 10.1521 17.3346 8.99935 17.3346ZM8.99935 16.0846C10.9716 16.0846 12.6452 15.3937 14.0202 14.0117C15.3952 12.6298 16.0827 10.9596 16.0827 9.0013C16.0827 7.02908 15.3952 5.35547 14.0202 3.98047C12.6452 2.60547 10.9716 1.91797 8.99935 1.91797C7.04102 1.91797 5.37088 2.60547 3.98893 3.98047C2.60699 5.35547 1.91602 7.02908 1.91602 9.0013C1.91602 10.9596 2.60699 12.6298 3.98893 14.0117C5.37088 15.3937 7.04102 16.0846 8.99935 16.0846Z" fill="#1C1C1C"/>
</svg>
