<svg width="14" height="12" viewBox="0 0 14 12" fill="none" xmlns="http://www.w3.org/2000/svg">
<path d="M1.33203 12C1.05425 12 0.818142 11.9028 0.623698 11.7083C0.429253 11.5139 0.332031 11.2778 0.332031 11V0L1.4487 1.11667L2.5487 0L3.66536 1.11667L4.78203 0L5.88203 1.11667L6.9987 0L8.11536 1.11667L9.21536 0L10.332 1.11667L11.4487 0L12.5487 1.11667L13.6654 0V11C13.6654 11.2778 13.5681 11.5139 13.3737 11.7083C13.1793 11.9028 12.9431 12 12.6654 12H1.33203ZM1.33203 11H6.4987V6.33333H1.33203V11ZM7.4987 11H12.6654V9.16667H7.4987V11ZM7.4987 8.16667H12.6654V6.33333H7.4987V8.16667ZM1.33203 5.33333H12.6654V3.33333H1.33203V5.33333Z" fill="#1C1C1C"/>
</svg>
