<svg width="12" height="12" viewBox="0 0 12 12" fill="none" xmlns="http://www.w3.org/2000/svg">
<path d="M5.60755 8.91699H6.48255V5.41699H5.60755V8.91699ZM6.0013 4.33783C6.13741 4.33783 6.25165 4.29408 6.34401 4.20658C6.43637 4.11908 6.48255 4.00727 6.48255 3.87116C6.48255 3.73505 6.43637 3.61838 6.34401 3.52116C6.25165 3.42394 6.13741 3.37533 6.0013 3.37533C5.86519 3.37533 5.75096 3.42394 5.65859 3.52116C5.56623 3.61838 5.52005 3.73505 5.52005 3.87116C5.52005 4.00727 5.56623 4.11908 5.65859 4.20658C5.75096 4.29408 5.86519 4.33783 6.0013 4.33783ZM6.0013 11.8337C5.20408 11.8337 4.45061 11.6805 3.74089 11.3743C3.03116 11.068 2.41137 10.65 1.88151 10.1201C1.35165 9.59026 0.933594 8.97046 0.627344 8.26074C0.321094 7.55102 0.167969 6.79269 0.167969 5.98574C0.167969 5.18852 0.321094 4.43505 0.627344 3.72533C0.933594 3.0156 1.35165 2.39824 1.88151 1.87324C2.41137 1.34824 3.03116 0.932617 3.74089 0.626367C4.45061 0.320117 5.20894 0.166992 6.01589 0.166992C6.81311 0.166992 7.56658 0.320117 8.2763 0.626367C8.98602 0.932617 9.60339 1.34824 10.1284 1.87324C10.6534 2.39824 11.069 3.0156 11.3753 3.72533C11.6815 4.43505 11.8346 5.19338 11.8346 6.00033C11.8346 6.79755 11.6815 7.55102 11.3753 8.26074C11.069 8.97046 10.6534 9.59026 10.1284 10.1201C9.60339 10.65 8.98602 11.068 8.2763 11.3743C7.56658 11.6805 6.80825 11.8337 6.0013 11.8337ZM6.01589 10.9587C7.38672 10.9587 8.55339 10.475 9.51589 9.50762C10.4784 8.54026 10.9596 7.3663 10.9596 5.98574C10.9596 4.61491 10.4784 3.44824 9.51589 2.48574C8.55339 1.52324 7.38186 1.04199 6.0013 1.04199C4.63047 1.04199 3.46137 1.52324 2.49401 2.48574C1.52665 3.44824 1.04297 4.61977 1.04297 6.00033C1.04297 7.37116 1.52665 8.54026 2.49401 9.50762C3.46137 10.475 4.63533 10.9587 6.01589 10.9587Z" fill="#808080"/>
</svg>
