<svg width="14" height="14" viewBox="0 0 14 14" fill="none" xmlns="http://www.w3.org/2000/svg">
<path d="M6.27813 12.6497V11.283C5.88924 11.283 5.56146 11.1386 5.29479 10.8497C5.02812 10.5608 4.89479 10.2219 4.89479 9.83301V9.09967L1.47812 5.68301C1.42257 5.90523 1.38368 6.12467 1.36146 6.34134C1.33924 6.55801 1.32812 6.77745 1.32812 6.99967C1.32812 8.44412 1.79757 9.70523 2.73646 10.783C3.67535 11.8608 4.8559 12.483 6.27813 12.6497ZM11.1781 10.8497C11.667 10.3163 12.0365 9.71912 12.2865 9.05801C12.5365 8.3969 12.6615 7.71079 12.6615 6.99967C12.6615 5.8219 12.3392 4.75245 11.6948 3.79134C11.0503 2.83023 10.1892 2.12745 9.11146 1.68301V1.98301C9.11146 2.3719 8.97812 2.71079 8.71146 2.99967C8.44479 3.28856 8.11701 3.43301 7.72813 3.43301H6.27813V4.88301C6.27813 5.0719 6.20312 5.22745 6.05312 5.34967C5.90312 5.4719 5.73368 5.53301 5.54479 5.53301H4.16146V6.99967H8.46146C8.65035 6.99967 8.8059 7.0719 8.92812 7.21634C9.05035 7.36079 9.11146 7.52745 9.11146 7.71634V9.83301H9.82812C10.1503 9.83301 10.4337 9.92745 10.6781 10.1163C10.9226 10.3052 11.0892 10.5497 11.1781 10.8497ZM6.99479 13.6663C6.07257 13.6663 5.2059 13.4913 4.39479 13.1413C3.58368 12.7913 2.87812 12.3163 2.27813 11.7163C1.67813 11.1163 1.20312 10.4108 0.853125 9.59967C0.503125 8.78856 0.328125 7.9219 0.328125 6.99967C0.328125 6.07745 0.503125 5.21079 0.853125 4.39967C1.20312 3.58856 1.67813 2.88301 2.27813 2.28301C2.87812 1.68301 3.58368 1.20801 4.39479 0.858008C5.2059 0.508008 6.07257 0.333008 6.99479 0.333008C7.91701 0.333008 8.78368 0.508008 9.59479 0.858008C10.4059 1.20801 11.1115 1.68301 11.7115 2.28301C12.3115 2.88301 12.7865 3.58856 13.1365 4.39967C13.4865 5.21079 13.6615 6.07745 13.6615 6.99967C13.6615 7.9219 13.4865 8.78856 13.1365 9.59967C12.7865 10.4108 12.3115 11.1163 11.7115 11.7163C11.1115 12.3163 10.4059 12.7913 9.59479 13.1413C8.78368 13.4913 7.91701 13.6663 6.99479 13.6663Z" fill="#1C1C1C"/>
</svg>
