<svg width="10" height="14" viewBox="0 0 10 14" fill="none" xmlns="http://www.w3.org/2000/svg">
    <path d="M5 10.034C6.15556 9.10065 7.02778 8.20343 7.61667 7.34232C8.20556 6.48121 8.5 5.67843 8.5 4.93398C8.5 4.27843 8.38056 3.72287 8.14167 3.26732C7.90278 2.81176 7.60833 2.43954 7.25833 2.15065C6.90833 1.86176 6.52778 1.65343 6.11667 1.52565C5.70556 1.39787 5.33333 1.33398 5 1.33398C4.66667 1.33398 4.29444 1.39787 3.88333 1.52565C3.47222 1.65343 3.09167 1.86176 2.74167 2.15065C2.39167 2.43954 2.09722 2.81176 1.85833 3.26732C1.61944 3.72287 1.5 4.27843 1.5 4.93398C1.5 5.67843 1.79444 6.48121 2.38333 7.34232C2.97222 8.20343 3.84444 9.10065 5 10.034ZM5 11.3007C3.47778 10.1562 2.34722 9.06176 1.60833 8.01732C0.869444 6.97287 0.5 5.9451 0.5 4.93398C0.5 4.17843 0.636111 3.51454 0.908333 2.94232C1.18056 2.3701 1.53333 1.88954 1.96667 1.50065C2.4 1.11176 2.88333 0.820095 3.41667 0.625651C3.95 0.431207 4.47778 0.333984 5 0.333984C5.52222 0.333984 6.05 0.431207 6.58333 0.625651C7.11667 0.820095 7.6 1.11176 8.03333 1.50065C8.46667 1.88954 8.81945 2.3701 9.09167 2.94232C9.36389 3.51454 9.5 4.17843 9.5 4.93398C9.5 5.9451 9.13056 6.97287 8.39167 8.01732C7.65278 9.06176 6.52222 10.1562 5 11.3007ZM5 6.00065C5.32222 6.00065 5.59722 5.88676 5.825 5.65898C6.05278 5.43121 6.16667 5.15621 6.16667 4.83398C6.16667 4.51176 6.05278 4.23676 5.825 4.00898C5.59722 3.78121 5.32222 3.66732 5 3.66732C4.67778 3.66732 4.40278 3.78121 4.175 4.00898C3.94722 4.23676 3.83333 4.51176 3.83333 4.83398C3.83333 5.15621 3.94722 5.43121 4.175 5.65898C4.40278 5.88676 4.67778 6.00065 5 6.00065ZM0.5 13.6673V12.6673H9.5V13.6673H0.5Z" fill="#1C1C1C"/>
    </svg>
    