<svg width="14" height="14" viewBox="0 0 14 14" fill="none" xmlns="http://www.w3.org/2000/svg">
    <path d="M6.99967 13.6673C6.07745 13.6673 5.21079 13.4923 4.39967 13.1423C3.58856 12.7923 2.88301 12.3173 2.28301 11.7173C1.68301 11.1173 1.20801 10.4118 0.858008 9.60065C0.508008 8.78954 0.333008 7.92287 0.333008 7.00065C0.333008 6.07843 0.508008 5.21176 0.858008 4.40065C1.20801 3.58954 1.68301 2.88398 2.28301 2.28398C2.88301 1.68398 3.58856 1.20898 4.39967 0.858984C5.21079 0.508984 6.07745 0.333984 6.99967 0.333984C7.9219 0.333984 8.78856 0.508984 9.59967 0.858984C10.4108 1.20898 11.1163 1.68398 11.7163 2.28398C12.3163 2.88398 12.7913 3.58954 13.1413 4.40065C13.4913 5.21176 13.6663 6.07843 13.6663 7.00065V7.88398C13.6663 8.50621 13.4469 9.03121 13.008 9.45898C12.5691 9.88676 12.033 10.1007 11.3997 10.1007C10.9997 10.1007 10.6219 10.0034 10.2663 9.80898C9.91078 9.61454 9.63856 9.33954 9.44967 8.98398C9.16079 9.36176 8.79967 9.64232 8.36634 9.82565C7.93301 10.009 7.47745 10.1007 6.99967 10.1007C6.13301 10.1007 5.3969 9.80065 4.79134 9.20065C4.18579 8.60065 3.88301 7.86732 3.88301 7.00065C3.88301 6.13398 4.18579 5.3951 4.79134 4.78398C5.3969 4.17287 6.13301 3.86732 6.99967 3.86732C7.86634 3.86732 8.60245 4.17287 9.20801 4.78398C9.81356 5.3951 10.1163 6.13398 10.1163 7.00065V7.88398C10.1163 8.22843 10.2413 8.51732 10.4913 8.75065C10.7413 8.98398 11.0441 9.10065 11.3997 9.10065C11.7441 9.10065 12.0413 8.98398 12.2913 8.75065C12.5413 8.51732 12.6663 8.22843 12.6663 7.88398V7.00065C12.6663 5.42287 12.1163 4.08398 11.0163 2.98398C9.91634 1.88398 8.57745 1.33398 6.99967 1.33398C5.4219 1.33398 4.08301 1.88398 2.98301 2.98398C1.88301 4.08398 1.33301 5.42287 1.33301 7.00065C1.33301 8.57843 1.88301 9.91732 2.98301 11.0173C4.08301 12.1173 5.4219 12.6673 6.99967 12.6673H10.5663V13.6673H6.99967ZM6.99967 9.10065C7.58856 9.10065 8.08856 8.89787 8.49967 8.49232C8.91079 8.08676 9.11634 7.58954 9.11634 7.00065C9.11634 6.40065 8.91079 5.8951 8.49967 5.48398C8.08856 5.07287 7.58856 4.86732 6.99967 4.86732C6.41079 4.86732 5.91079 5.07287 5.49967 5.48398C5.08856 5.8951 4.88301 6.40065 4.88301 7.00065C4.88301 7.58954 5.08856 8.08676 5.49967 8.49232C5.91079 8.89787 6.41079 9.10065 6.99967 9.10065Z" fill="#1C1C1C"/>
    </svg>
    