<svg width="20" height="10" viewBox="0 0 20 10" fill="none" xmlns="http://www.w3.org/2000/svg">
<path d="M0 10V8.89583C0 8.35417 0.291667 7.91667 0.875 7.58333C1.45833 7.25 2.20833 7.08333 3.125 7.08333C3.30556 7.08333 3.47222 7.08681 3.625 7.09375C3.77778 7.10069 3.93056 7.11806 4.08333 7.14583C3.97222 7.38194 3.88889 7.62153 3.83333 7.86458C3.77778 8.10764 3.75 8.36806 3.75 8.64583V10H0ZM5 10V8.64583C5 7.74306 5.46181 7.01389 6.38542 6.45833C7.30903 5.90278 8.51389 5.625 10 5.625C11.5 5.625 12.7083 5.90278 13.625 6.45833C14.5417 7.01389 15 7.74306 15 8.64583V10H5ZM16.25 10V8.64583C16.25 8.36806 16.2257 8.10764 16.1771 7.86458C16.1285 7.62153 16.0486 7.38194 15.9375 7.14583C16.0903 7.11806 16.2431 7.10069 16.3958 7.09375C16.5486 7.08681 16.7083 7.08333 16.875 7.08333C17.8194 7.08333 18.5764 7.25 19.1458 7.58333C19.7153 7.91667 20 8.35417 20 8.89583V10H16.25ZM10 6.875C8.88889 6.875 7.98611 7.04167 7.29167 7.375C6.59722 7.70833 6.25 8.13194 6.25 8.64583V8.75H13.75V8.625C13.75 8.125 13.4062 7.70833 12.7188 7.375C12.0312 7.04167 11.125 6.875 10 6.875ZM3.125 6.45833C2.72222 6.45833 2.37847 6.31597 2.09375 6.03125C1.80903 5.74653 1.66667 5.40278 1.66667 5C1.66667 4.59722 1.80903 4.25347 2.09375 3.96875C2.37847 3.68403 2.72222 3.54167 3.125 3.54167C3.52778 3.54167 3.87153 3.68403 4.15625 3.96875C4.44097 4.25347 4.58333 4.59722 4.58333 5C4.58333 5.40278 4.44097 5.74653 4.15625 6.03125C3.87153 6.31597 3.52778 6.45833 3.125 6.45833ZM16.875 6.45833C16.4722 6.45833 16.1285 6.31597 15.8438 6.03125C15.559 5.74653 15.4167 5.40278 15.4167 5C15.4167 4.59722 15.559 4.25347 15.8438 3.96875C16.1285 3.68403 16.4722 3.54167 16.875 3.54167C17.2778 3.54167 17.6215 3.68403 17.9062 3.96875C18.191 4.25347 18.3333 4.59722 18.3333 5C18.3333 5.40278 18.191 5.74653 17.9062 6.03125C17.6215 6.31597 17.2778 6.45833 16.875 6.45833ZM10 5C9.30556 5 8.71528 4.75694 8.22917 4.27083C7.74306 3.78472 7.5 3.19444 7.5 2.5C7.5 1.79167 7.74306 1.19792 8.22917 0.71875C8.71528 0.239583 9.30556 0 10 0C10.7083 0 11.3021 0.239583 11.7812 0.71875C12.2604 1.19792 12.5 1.79167 12.5 2.5C12.5 3.19444 12.2604 3.78472 11.7812 4.27083C11.3021 4.75694 10.7083 5 10 5ZM10 1.25C9.65278 1.25 9.35764 1.36806 9.11458 1.60417C8.87153 1.84028 8.75 2.13889 8.75 2.5C8.75 2.84722 8.87153 3.14236 9.11458 3.38542C9.35764 3.62847 9.65278 3.75 10 3.75C10.3611 3.75 10.6597 3.62847 10.8958 3.38542C11.1319 3.14236 11.25 2.84722 11.25 2.5C11.25 2.13889 11.1319 1.84028 10.8958 1.60417C10.6597 1.36806 10.3611 1.25 10 1.25Z" fill="#1C1C1C"/>
</svg>
