<svg width="18" height="18" viewBox="0 0 18 18" fill="none" xmlns="http://www.w3.org/2000/svg">
<path d="M8.4388 13.166H9.6888V9.70768H13.168V8.45768H9.6888V4.83268H8.4388V8.45768H4.83464V9.70768H8.4388V13.166ZM9.0013 17.3327C7.86241 17.3327 6.78602 17.1139 5.77214 16.6764C4.75825 16.2389 3.87283 15.6417 3.11589 14.8848C2.35894 14.1278 1.76172 13.2424 1.32422 12.2285C0.886719 11.2146 0.667969 10.1313 0.667969 8.97852C0.667969 7.83963 0.886719 6.76324 1.32422 5.74935C1.76172 4.73546 2.35894 3.85352 3.11589 3.10352C3.87283 2.35352 4.75825 1.75977 5.77214 1.32227C6.78602 0.884766 7.86936 0.666016 9.02213 0.666016C10.161 0.666016 11.2374 0.884766 12.2513 1.32227C13.2652 1.75977 14.1471 2.35352 14.8971 3.10352C15.6471 3.85352 16.2409 4.73546 16.6784 5.74935C17.1159 6.76324 17.3346 7.84657 17.3346 8.99935C17.3346 10.1382 17.1159 11.2146 16.6784 12.2285C16.2409 13.2424 15.6471 14.1278 14.8971 14.8848C14.1471 15.6417 13.2652 16.2389 12.2513 16.6764C11.2374 17.1139 10.1541 17.3327 9.0013 17.3327ZM9.02213 16.0827C10.9805 16.0827 12.6471 15.3917 14.0221 14.0098C15.3971 12.6278 16.0846 10.9507 16.0846 8.97852C16.0846 7.02018 15.3971 5.35352 14.0221 3.97852C12.6471 2.60352 10.9735 1.91602 9.0013 1.91602C7.04297 1.91602 5.37283 2.60352 3.99089 3.97852C2.60894 5.35352 1.91797 7.02713 1.91797 8.99935C1.91797 10.9577 2.60894 12.6278 3.99089 14.0098C5.37283 15.3917 7.04991 16.0827 9.02213 16.0827Z" fill="#808080"/>
</svg>
