<svg width="20" height="16" viewBox="0 0 20 16" fill="none" xmlns="http://www.w3.org/2000/svg">
<path d="M9.9987 10L11.0195 7.77083L13.2487 6.75L11.0195 5.72917L9.9987 3.5L8.97786 5.72917L6.7487 6.75L8.97786 7.77083L9.9987 10ZM2.91536 13C2.58203 13 2.29036 12.875 2.04036 12.625C1.79036 12.375 1.66536 12.0833 1.66536 11.75V1.75C1.66536 1.41667 1.79036 1.125 2.04036 0.875C2.29036 0.625 2.58203 0.5 2.91536 0.5H17.082C17.4154 0.5 17.707 0.625 17.957 0.875C18.207 1.125 18.332 1.41667 18.332 1.75V11.75C18.332 12.0833 18.207 12.375 17.957 12.625C17.707 12.875 17.4154 13 17.082 13H2.91536ZM2.91536 11.75H17.082V1.75H2.91536V11.75ZM0.832031 15.5V14.25H19.1654V15.5H0.832031ZM2.91536 11.75V1.75V11.75Z" fill="#1C1C1C"/>
</svg>
