<svg width="10" height="16" viewBox="0 0 10 16" fill="none" xmlns="http://www.w3.org/2000/svg">
<path d="M4.9987 14.0837C5.14314 14.0837 5.26259 14.0364 5.35703 13.942C5.45148 13.8475 5.4987 13.7281 5.4987 13.5837C5.4987 13.4392 5.45148 13.3198 5.35703 13.2253C5.26259 13.1309 5.14314 13.0837 4.9987 13.0837C4.85425 13.0837 4.73481 13.1309 4.64036 13.2253C4.54592 13.3198 4.4987 13.4392 4.4987 13.5837C4.4987 13.7281 4.54592 13.8475 4.64036 13.942C4.73481 14.0364 4.85425 14.0837 4.9987 14.0837ZM1.33203 11.8337H8.66536V3.16699H1.33203V11.8337ZM1.33203 15.3337C1.06536 15.3337 0.832031 15.2337 0.632031 15.0337C0.432031 14.8337 0.332031 14.6003 0.332031 14.3337V1.66699C0.332031 1.40033 0.432031 1.16699 0.632031 0.966992C0.832031 0.766992 1.06536 0.666992 1.33203 0.666992H8.66536C8.93203 0.666992 9.16536 0.766992 9.36536 0.966992C9.56536 1.16699 9.66536 1.40033 9.66536 1.66699V14.3337C9.66536 14.6003 9.56536 14.8337 9.36536 15.0337C9.16536 15.2337 8.93203 15.3337 8.66536 15.3337H1.33203ZM1.33203 2.16699H8.66536V1.66699H1.33203V2.16699ZM1.33203 1.66699V2.16699V1.66699ZM1.33203 12.8337V14.3337H8.66536V12.8337H1.33203ZM1.33203 14.3337V12.8337V14.3337Z" fill="#1C1C1C"/>
</svg>
