<svg width="4" height="14" viewBox="0 0 4 14" fill="none" xmlns="http://www.w3.org/2000/svg">
<path d="M2.00065 3.66732C2.91732 3.66732 3.66732 2.91732 3.66732 2.00065C3.66732 1.08398 2.91732 0.333984 2.00065 0.333984C1.08398 0.333984 0.333984 1.08398 0.333984 2.00065C0.333984 2.91732 1.08398 3.66732 2.00065 3.66732ZM2.00065 5.33398C1.08398 5.33398 0.333984 6.08398 0.333984 7.00065C0.333984 7.91732 1.08398 8.66732 2.00065 8.66732C2.91732 8.66732 3.66732 7.91732 3.66732 7.00065C3.66732 6.08398 2.91732 5.33398 2.00065 5.33398ZM2.00065 10.334C1.08398 10.334 0.333984 11.084 0.333984 12.0007C0.333984 12.9173 1.08398 13.6673 2.00065 13.6673C2.91732 13.6673 3.66732 12.9173 3.66732 12.0007C3.66732 11.084 2.91732 10.334 2.00065 10.334Z" fill="#808080"/>
</svg>
