<svg width="28" height="28" viewBox="0 0 28 28" fill="none" xmlns="http://www.w3.org/2000/svg">
<path d="M2.75 27.5C2.15 27.5 1.625 27.275 1.175 26.825C0.725 26.375 0.5 25.85 0.5 25.25V2.75C0.5 2.15 0.725 1.625 1.175 1.175C1.625 0.725 2.15 0.5 2.75 0.5H25.25C25.85 0.5 26.375 0.725 26.825 1.175C27.275 1.625 27.5 2.15 27.5 2.75V25.25C27.5 25.85 27.275 26.375 26.825 26.825C26.375 27.275 25.85 27.5 25.25 27.5H2.75ZM2.75 25.25H25.25V20.15H19.775C19.125 21.15 18.2812 21.9188 17.2438 22.4563C16.2063 22.9938 15.125 23.2625 14 23.2625C12.875 23.2625 11.7937 22.9938 10.7562 22.4563C9.71875 21.9188 8.875 21.15 8.225 20.15H2.75V25.25ZM14 21.0125C15.025 21.0125 15.95 20.7188 16.775 20.1312C17.6 19.5437 18.3 18.8 18.875 17.9H25.25V2.75H2.75V17.9H9.125C9.7 18.8 10.4 19.5437 11.225 20.1312C12.05 20.7188 12.975 21.0125 14 21.0125ZM14 16.175L8.2625 10.4375L9.875 8.825L12.875 11.825V4.7375H15.125V11.825L18.125 8.825L19.7375 10.4375L14 16.175ZM2.75 25.25H25.25H2.75Z" fill="#1C1C1C"/>
</svg>
