<svg width="17" height="17" viewBox="0 0 17 17" fill="none" xmlns="http://www.w3.org/2000/svg">
<path d="M5.96672 10.353H2" stroke="#1C1C1C" stroke-linecap="round" stroke-linejoin="round"/>
<path fill-rule="evenodd" clip-rule="evenodd" d="M11.9983 10.3528C11.9983 11.2625 11.2912 12 10.419 12C9.54687 12 8.83984 11.2625 8.83984 10.3528C8.83984 9.44247 9.54687 8.70569 10.419 8.70569C11.2912 8.70569 11.9983 9.44247 11.9983 10.3528Z" stroke="#1C1C1C" stroke-linecap="round" stroke-linejoin="round"/>
<path d="M8.03223 3.64734H11.9996" stroke="#1C1C1C" stroke-linecap="round" stroke-linejoin="round"/>
<path fill-rule="evenodd" clip-rule="evenodd" d="M2 3.64715C2 4.55753 2.70703 5.2943 3.5792 5.2943C4.45138 5.2943 5.15841 4.55753 5.15841 3.64715C5.15841 2.73745 4.45138 2 3.5792 2C2.70703 2 2 2.73745 2 3.64715Z" stroke="#1C1C1C" stroke-linecap="round" stroke-linejoin="round"/>
</svg>
