<svg width="12" height="14" viewBox="0 0 12 14" fill="none" xmlns="http://www.w3.org/2000/svg">
    <path d="M5.5 7.70026V0.933594H6.5V7.70026H5.5ZM6 13.0336C5.17778 13.0336 4.40278 12.8753 3.675 12.5586C2.94722 12.2419 2.31111 11.8114 1.76667 11.2669C1.22222 10.7225 0.791667 10.0864 0.475 9.35859C0.158333 8.63082 0 7.85582 0 7.03359C0 6.1447 0.188889 5.31415 0.566667 4.54193C0.944444 3.7697 1.47778 3.08359 2.16667 2.48359L2.86667 3.18359C2.27778 3.66137 1.81944 4.23082 1.49167 4.89193C1.16389 5.55304 1 6.26693 1 7.03359C1 8.42248 1.48611 9.60304 2.45833 10.5753C3.43056 11.5475 4.61111 12.0336 6 12.0336C7.38889 12.0336 8.56944 11.5475 9.54167 10.5753C10.5139 9.60304 11 8.42248 11 7.03359C11 6.26693 10.8361 5.54748 10.5083 4.87526C10.1806 4.20304 9.73333 3.63915 9.16667 3.18359L9.88333 2.48359C10.55 3.05026 11.0694 3.72804 11.4417 4.51693C11.8139 5.30582 12 6.1447 12 7.03359C12 7.85582 11.8417 8.63082 11.525 9.35859C11.2083 10.0864 10.7806 10.7225 10.2417 11.2669C9.70278 11.8114 9.06944 12.2419 8.34167 12.5586C7.61389 12.8753 6.83333 13.0336 6 13.0336Z" fill="#1C1C1C" />
</svg>
    