<svg width="12" height="12" viewBox="0 0 12 12" fill="none" xmlns="http://www.w3.org/2000/svg">
    <path d="M1 10.3833C1.66667 9.76111 2.42222 9.25833 3.26667 8.875C4.11111 8.49167 5.02222 8.3 6 8.3C6.97778 8.3 7.88889 8.49167 8.73333 8.875C9.57778 9.25833 10.3333 9.76111 11 10.3833V1H1V10.3833ZM6.03333 6.98333C6.67778 6.98333 7.22222 6.76111 7.66667 6.31667C8.11111 5.87222 8.33333 5.32778 8.33333 4.68333C8.33333 4.03889 8.11111 3.49444 7.66667 3.05C7.22222 2.60556 6.67778 2.38333 6.03333 2.38333C5.38889 2.38333 4.84444 2.60556 4.4 3.05C3.95556 3.49444 3.73333 4.03889 3.73333 4.68333C3.73333 5.32778 3.95556 5.87222 4.4 6.31667C4.84444 6.76111 5.38889 6.98333 6.03333 6.98333ZM1 12C0.733333 12 0.5 11.9 0.3 11.7C0.1 11.5 0 11.2667 0 11V1C0 0.733333 0.1 0.5 0.3 0.3C0.5 0.1 0.733333 0 1 0H11C11.2667 0 11.5 0.1 11.7 0.3C11.9 0.5 12 0.733333 12 1V11C12 11.2667 11.9 11.5 11.7 11.7C11.5 11.9 11.2667 12 11 12H1ZM1.91667 11H10.0833V10.85C9.48333 10.3389 8.83889 9.95278 8.15 9.69167C7.46111 9.43056 6.74444 9.3 6 9.3C5.25556 9.3 4.53889 9.43056 3.85 9.69167C3.16111 9.95278 2.51667 10.3389 1.91667 10.85V11ZM6.03333 5.98333C5.67778 5.98333 5.37222 5.85556 5.11667 5.6C4.86111 5.34444 4.73333 5.03889 4.73333 4.68333C4.73333 4.31667 4.86111 4.00833 5.11667 3.75833C5.37222 3.50833 5.67778 3.38333 6.03333 3.38333C6.4 3.38333 6.70833 3.50833 6.95833 3.75833C7.20833 4.00833 7.33333 4.31667 7.33333 4.68333C7.33333 5.03889 7.20833 5.34444 6.95833 5.6C6.70833 5.85556 6.4 5.98333 6.03333 5.98333Z" fill="#1C1C1C" />
</svg>
    