<svg width="14" height="19" viewBox="0 0 14 19" fill="none" xmlns="http://www.w3.org/2000/svg">
<path d="M5.01953 10.417L5.76953 8.02116L3.79036 6.47949H6.20703L6.9987 4.00033L7.76953 6.47949H10.207L8.22786 8.02116L8.95703 10.417L6.9987 8.93783L5.01953 10.417ZM2.08203 18.167V11.8337C1.45703 11.1809 1.00911 10.4656 0.738281 9.68783C0.467448 8.91005 0.332031 8.12533 0.332031 7.33366C0.332031 5.44477 0.97092 3.86144 2.2487 2.58366C3.52648 1.30588 5.10981 0.666992 6.9987 0.666992C8.88759 0.666992 10.4709 1.30588 11.7487 2.58366C13.0265 3.86144 13.6654 5.44477 13.6654 7.33366C13.6654 8.12533 13.5299 8.91005 13.2591 9.68783C12.9883 10.4656 12.5404 11.1809 11.9154 11.8337V18.167L6.9987 16.5212L2.08203 18.167ZM6.9987 12.7503C8.51259 12.7503 9.79384 12.226 10.8424 11.1774C11.8911 10.1288 12.4154 8.84755 12.4154 7.33366C12.4154 5.81977 11.8911 4.53852 10.8424 3.48991C9.79384 2.4413 8.51259 1.91699 6.9987 1.91699C5.48481 1.91699 4.20356 2.4413 3.15495 3.48991C2.10634 4.53852 1.58203 5.81977 1.58203 7.33366C1.58203 8.84755 2.10634 10.1288 3.15495 11.1774C4.20356 12.226 5.48481 12.7503 6.9987 12.7503ZM3.33203 16.417L6.9987 15.2712L10.6654 16.417V12.8545C10.1098 13.2573 9.51259 13.5489 8.8737 13.7295C8.23481 13.91 7.60981 14.0003 6.9987 14.0003C6.38759 14.0003 5.76259 13.91 5.1237 13.7295C4.48481 13.5489 3.88759 13.2573 3.33203 12.8545V16.417Z" fill="#1C1C1C"/>
</svg>
