<svg width="16" height="21" viewBox="0 0 16 21" fill="none" xmlns="http://www.w3.org/2000/svg">
    <path d="M1.5 21C1.08333 21 0.729167 20.8542 0.4375 20.5625C0.145833 20.2708 0 19.9167 0 19.5V8.65C0 8.23333 0.145833 7.87917 0.4375 7.5875C0.729167 7.29583 1.08333 7.15 1.5 7.15H3.25V4.75C3.25 3.43333 3.7125 2.3125 4.6375 1.3875C5.5625 0.4625 6.68333 0 8 0C9.31667 0 10.4375 0.4625 11.3625 1.3875C12.2875 2.3125 12.75 3.43333 12.75 4.75V7.15H14.5C14.9167 7.15 15.2708 7.29583 15.5625 7.5875C15.8542 7.87917 16 8.23333 16 8.65V19.5C16 19.9167 15.8542 20.2708 15.5625 20.5625C15.2708 20.8542 14.9167 21 14.5 21H1.5ZM4.75 7.15H11.25V4.75C11.25 3.85 10.9333 3.08333 10.3 2.45C9.66667 1.81667 8.9 1.5 8 1.5C7.1 1.5 6.33333 1.81667 5.7 2.45C5.06667 3.08333 4.75 3.85 4.75 4.75V7.15ZM1.5 19.5H14.5V8.65H1.5V19.5ZM8 16C8.53333 16 8.9875 15.8167 9.3625 15.45C9.7375 15.0833 9.925 14.6417 9.925 14.125C9.925 13.625 9.7375 13.1708 9.3625 12.7625C8.9875 12.3542 8.53333 12.15 8 12.15C7.46667 12.15 7.0125 12.3542 6.6375 12.7625C6.2625 13.1708 6.075 13.625 6.075 14.125C6.075 14.6417 6.2625 15.0833 6.6375 15.45C7.0125 15.8167 7.46667 16 8 16Z" fill="#1C1C1C"/>
    </svg>
    