<svg width="16" height="16" viewBox="0 0 16 16" fill="none" xmlns="http://www.w3.org/2000/svg">
    <path d="M12.868 5.41706L12.1513 3.75039L10.418 2.98372L12.1513 2.23372L12.868 0.650391L13.5846 2.23372L15.318 2.98372L13.5846 3.75039L12.868 5.41706ZM12.868 15.3337L12.1513 13.7337L10.418 12.9837L12.1513 12.2337L12.868 10.5504L13.5846 12.2337L15.318 12.9837L13.5846 13.7337L12.868 15.3337ZM5.5513 12.7671L4.01797 9.48372L0.667969 7.98372L4.01797 6.48372L5.5513 3.21706L7.1013 6.48372L10.4346 7.98372L7.1013 9.48372L5.5513 12.7671ZM5.5513 10.3004L6.3513 8.70039L7.98464 7.98372L6.3513 7.26706L5.5513 5.66706L4.76797 7.26706L3.11797 7.98372L4.76797 8.70039L5.5513 10.3004Z" fill="#1C1C1C" />
</svg>
    