<svg width="12" height="16" viewBox="0 0 12 16" fill="none" xmlns="http://www.w3.org/2000/svg">
    <path d="M11 13.8327V1.66602H1.88333V0.666016H11C11.2667 0.666016 11.5 0.766016 11.7 0.966016C11.9 1.16602 12 1.39935 12 1.66602V13.8327H11ZM1 13.816L5 12.0993L9 13.816V3.66602H1V13.816ZM0 15.3327V3.66602C0 3.39935 0.1 3.16602 0.3 2.96602C0.5 2.76602 0.733333 2.66602 1 2.66602H9C9.26667 2.66602 9.50278 2.76602 9.70833 2.96602C9.91389 3.16602 10.0167 3.39935 10.0167 3.66602V15.3327L5 13.216L0 15.3327ZM1 3.66602H9H5H1Z" fill="#1C1C1C" />
</svg>
    