<svg width="14" height="14" viewBox="0 0 14 14" fill="none" xmlns="http://www.w3.org/2000/svg">
    <path d="M5.46536 13.6673L5.13203 11.5673C4.92092 11.4895 4.6987 11.384 4.46536 11.2507C4.23203 11.1173 4.02648 10.9784 3.8487 10.834L1.88203 11.734L0.332031 9.00065L2.13203 7.68398C2.10981 7.58398 2.09592 7.4701 2.09036 7.34232C2.08481 7.21454 2.08203 7.10065 2.08203 7.00065C2.08203 6.90065 2.08481 6.78676 2.09036 6.65898C2.09592 6.53121 2.10981 6.41732 2.13203 6.31732L0.332031 5.00065L1.88203 2.26732L3.8487 3.16732C4.02648 3.02287 4.23203 2.88398 4.46536 2.75065C4.6987 2.61732 4.92092 2.51732 5.13203 2.45065L5.46536 0.333984H8.53203L8.86537 2.43398C9.07648 2.51176 9.30148 2.61454 9.54037 2.74232C9.77925 2.8701 9.98203 3.01176 10.1487 3.16732L12.1154 2.26732L13.6654 5.00065L11.8654 6.28398C11.8876 6.3951 11.9015 6.51454 11.907 6.64232C11.9126 6.7701 11.9154 6.88954 11.9154 7.00065C11.9154 7.11176 11.9126 7.22843 11.907 7.35065C11.9015 7.47287 11.8876 7.58954 11.8654 7.70065L13.6654 9.00065L12.1154 11.734L10.1487 10.834C9.97092 10.9784 9.76814 11.1201 9.54037 11.259C9.31259 11.3979 9.08759 11.5007 8.86537 11.5673L8.53203 13.6673H5.46536ZM6.9987 9.16732C7.5987 9.16732 8.10981 8.95621 8.53203 8.53399C8.95425 8.11176 9.16537 7.60065 9.16537 7.00065C9.16537 6.40065 8.95425 5.88954 8.53203 5.46732C8.10981 5.0451 7.5987 4.83398 6.9987 4.83398C6.3987 4.83398 5.88759 5.0451 5.46536 5.46732C5.04314 5.88954 4.83203 6.40065 4.83203 7.00065C4.83203 7.60065 5.04314 8.11176 5.46536 8.53399C5.88759 8.95621 6.3987 9.16732 6.9987 9.16732ZM6.9987 8.16732C6.67648 8.16732 6.40148 8.05343 6.1737 7.82565C5.94592 7.59787 5.83203 7.32287 5.83203 7.00065C5.83203 6.67843 5.94592 6.40343 6.1737 6.17565C6.40148 5.94787 6.67648 5.83398 6.9987 5.83398C7.32092 5.83398 7.59592 5.94787 7.8237 6.17565C8.05148 6.40343 8.16536 6.67843 8.16536 7.00065C8.16536 7.32287 8.05148 7.59787 7.8237 7.82565C7.59592 8.05343 7.32092 8.16732 6.9987 8.16732ZM6.26536 12.6673H7.73203L7.96536 10.8007C8.33203 10.7118 8.67925 10.5729 9.00703 10.384C9.33481 10.1951 9.63203 9.96732 9.8987 9.70065L11.6654 10.4673L12.332 9.26732L10.7654 8.11732C10.8098 7.92843 10.8459 7.74232 10.8737 7.55898C10.9015 7.37565 10.9154 7.18954 10.9154 7.00065C10.9154 6.81176 10.9043 6.62565 10.882 6.44232C10.8598 6.25898 10.8209 6.07287 10.7654 5.88398L12.332 4.73398L11.6654 3.53398L9.8987 4.30065C9.64314 4.01176 9.35425 3.7701 9.03203 3.57565C8.70981 3.38121 8.35425 3.25621 7.96536 3.20065L7.73203 1.33398H6.26536L6.03203 3.20065C5.65425 3.27843 5.30148 3.41176 4.9737 3.60065C4.64592 3.78954 4.35425 4.02287 4.0987 4.30065L2.33203 3.53398L1.66536 4.73398L3.23203 5.88398C3.18759 6.07287 3.15148 6.25898 3.1237 6.44232C3.09592 6.62565 3.08203 6.81176 3.08203 7.00065C3.08203 7.18954 3.09592 7.37565 3.1237 7.55898C3.15148 7.74232 3.18759 7.92843 3.23203 8.11732L1.66536 9.26732L2.33203 10.4673L4.0987 9.70065C4.36536 9.96732 4.66259 10.1951 4.99037 10.384C5.31814 10.5729 5.66536 10.7118 6.03203 10.8007L6.26536 12.6673Z" fill="#1C1C1C" />
</svg>
    