<svg width="16" height="21" viewBox="0 0 16 21" fill="none" xmlns="http://www.w3.org/2000/svg">
    <path d="M5.625 11.7L6.525 8.825L4.15 6.975H7.05L8 4L8.925 6.975H11.85L9.475 8.825L10.35 11.7L8 9.925L5.625 11.7ZM2.1 21V13.4C1.35 12.6167 0.8125 11.7583 0.4875 10.825C0.1625 9.89167 0 8.95 0 8C0 5.73333 0.766667 3.83333 2.3 2.3C3.83333 0.766667 5.73333 0 8 0C10.2667 0 12.1667 0.766667 13.7 2.3C15.2333 3.83333 16 5.73333 16 8C16 8.95 15.8375 9.89167 15.5125 10.825C15.1875 11.7583 14.65 12.6167 13.9 13.4V21L8 19.025L2.1 21ZM8 14.5C9.81667 14.5 11.3542 13.8708 12.6125 12.6125C13.8708 11.3542 14.5 9.81667 14.5 8C14.5 6.18333 13.8708 4.64583 12.6125 3.3875C11.3542 2.12917 9.81667 1.5 8 1.5C6.18333 1.5 4.64583 2.12917 3.3875 3.3875C2.12917 4.64583 1.5 6.18333 1.5 8C1.5 9.81667 2.12917 11.3542 3.3875 12.6125C4.64583 13.8708 6.18333 14.5 8 14.5ZM3.6 18.9L8 17.525L12.4 18.9V14.625C11.7333 15.1083 11.0167 15.4583 10.25 15.675C9.48333 15.8917 8.73333 16 8 16C7.26667 16 6.51667 15.8917 5.75 15.675C4.98333 15.4583 4.26667 15.1083 3.6 14.625V18.9Z" fill="#1C1C1C"/>
    </svg>
    