<svg width="64" height="64" viewBox="0 0 64 64" fill="none" xmlns="http://www.w3.org/2000/svg">
<g clip-path="url(#clip0_11001_106507)">
<rect width="64" height="64" rx="32" fill="white"/>
<path fill-rule="evenodd" clip-rule="evenodd" d="M21.561 1.71206C9.67909 5.77271 0.947036 16.6285 0 29.6443H16.5257C18.2134 29.6443 19.8942 29.5517 21.561 29.3687V1.71206ZM0.193201 36.2412C1.80495 48.4126 10.2577 58.425 21.561 62.2879V37.8444C17.6525 36.786 13.6006 36.2412 9.50714 36.2412H0.193201ZM28.1492 63.7808C29.3842 63.9256 30.6407 64 31.9146 64C39.9907 64 47.3681 61.0082 52.9988 56.0725L35.3047 44.1316C33.0307 42.597 30.6353 41.2757 28.1492 40.177V63.7808ZM57.5302 51.1824C61.5394 45.8372 63.9146 39.196 63.9146 32C63.9146 26.8737 62.7092 22.0289 60.5663 17.7336L45.3073 27.6802C40.8568 30.5812 36.0179 32.7771 30.9614 34.2171C33.7494 35.4596 36.4367 36.9474 38.99 38.6706L57.5302 51.1824ZM57.0332 12.1723C51.1726 4.75792 42.0992 0 31.9146 0C30.6407 0 29.3842 0.0744374 28.1492 0.2192V28.1555C32.9385 26.9081 37.5208 24.8915 41.7096 22.161L57.0332 12.1723Z" fill="#0B44D8"/>
</g>
<defs>
<clipPath id="clip0_11001_106507">
<rect width="64" height="64" rx="32" fill="white"/>
</clipPath>
</defs>
</svg>
