<svg width="28" height="28" viewBox="0 0 28 28" fill="none" xmlns="http://www.w3.org/2000/svg">
<path fill-rule="evenodd" clip-rule="evenodd" d="M4 0C1.79086 0 0 1.79086 0 4V16.7549V24C0 26.2091 1.79086 28 4 28H24C26.2091 28 28 26.2091 28 24V21.0101C27.5875 21.0219 27.1159 21.0279 26.585 21.0279C25.5932 21.0279 24.839 20.8626 24.3224 20.532C23.8059 20.2014 23.4133 19.8604 23.1447 19.5092L19.8283 15.0771L19.6424 14.8911C19.5804 14.8084 19.5184 14.7671 19.4564 14.7671H19.1465V13.6992H20.7313C22.1902 13.6992 23.3728 12.5166 23.3728 11.0577C23.3728 9.59885 22.1902 8.4162 20.7313 8.4162H19.1465V7.35962H20.8821C22.969 7.35962 24.3534 8.06215 25.0353 9.4672C25.2626 9.94243 25.3762 10.4383 25.3762 10.9549C25.3762 11.4715 25.2729 11.9157 25.0663 12.2876C24.8803 12.6595 24.6427 13.0005 24.3534 13.3104C23.7955 13.889 23.2067 14.2506 22.5868 14.3952L25.5622 18.2074C26.1821 19.0133 26.9156 19.5815 27.7627 19.9121C27.8438 19.9452 27.9229 19.9754 28 20.0027V4C28 1.79086 26.2091 0 24 0H4ZM0 16.7549C0.041325 16.6929 0.134306 16.6309 0.278943 16.569C0.444243 16.507 0.578549 16.476 0.681862 16.476C0.785174 16.476 0.847161 16.5276 0.867824 16.6309C0.971136 17.2921 1.3224 17.9843 1.92161 18.7075C2.62413 19.5134 3.39898 19.9163 4.24614 19.9163C4.74204 19.9163 5.18628 19.7716 5.57887 19.4824C5.97146 19.1724 6.16775 18.6559 6.16775 17.9327C6.16775 17.3128 5.78549 16.6619 5.02098 15.9801C4.71104 15.6908 4.38044 15.4325 4.02918 15.2052C3.67792 14.9779 3.34732 14.761 3.03738 14.5544C2.72745 14.3271 2.38652 14.0895 2.01459 13.8415C1.66333 13.5936 1.34306 13.3146 1.05379 13.0047C0.454574 12.3228 0.154969 11.5067 0.154969 10.5562C0.154969 9.54372 0.619874 8.66556 1.54969 7.92171C2.41751 7.21919 3.40931 6.86792 4.52508 6.86792C5.12429 6.86792 5.68218 6.92991 6.19874 7.05389C6.73597 7.17786 7.31452 7.30184 7.93439 7.42581C7.99638 7.96304 8.0377 8.51059 8.05836 9.06848C8.09969 9.62637 8.14102 10.2152 8.18234 10.8351C8.09969 10.9178 8.02737 10.9591 7.96538 10.9591C7.5728 10.9591 7.36617 10.9074 7.34551 10.8041C7.2422 10.1223 6.96325 9.4714 6.50868 8.85152C5.97146 8.10767 5.34125 7.73575 4.61806 7.73575C4.20481 7.73575 3.81223 7.85972 3.4403 8.10767C3.06838 8.35562 2.88242 8.82053 2.88242 9.50239C2.88242 10.3909 3.86388 11.486 5.82682 12.7877C6.15742 13.015 6.49835 13.2526 6.84961 13.5006C7.22153 13.7279 7.55213 13.9965 7.84141 14.3064C8.50261 15.0503 8.83321 15.9491 8.83321 17.0029C8.83321 18.098 8.3683 19.0071 7.43849 19.7303C6.55 20.4328 5.53754 20.7841 4.40111 20.7841C3.20268 20.7841 1.90095 20.5981 0.495899 20.2262C0.289275 19.1311 0.154969 18.3149 0.0929812 17.7777C0.0516562 17.2405 0.0206625 16.8996 0 16.7549ZM9.10742 14.0233C10.1405 13.1968 10.8327 12.5976 11.184 12.2256L12.0828 11.3578C12.7027 10.7173 13.3122 10.0148 13.9114 9.25024C14.0354 9.08494 14.0974 8.85765 14.0974 8.56838C14.0974 8.25844 13.7152 8.10347 12.9506 8.10347C12.8267 7.85552 12.8163 7.60757 12.9196 7.35962L15.5851 7.51459C16.3083 7.51459 17.1555 7.46294 18.1266 7.35962C18.1679 7.44227 18.1782 7.56625 18.1576 7.73155C18.1576 7.89685 18.1266 8.01049 18.0646 8.07248C17.6307 8.07248 17.1864 8.17579 16.7319 8.38242C16.2773 8.58904 15.957 8.78533 15.7711 8.9713L11.9278 12.9385C11.8245 13.0625 11.8039 13.1761 11.8659 13.2794L15.5541 18.2384C16.1946 19.0649 16.9178 19.6331 17.7237 19.9431C18.2196 20.129 18.6225 20.222 18.9324 20.222C18.9738 20.3047 18.9841 20.4493 18.9634 20.6559C18.9634 20.8419 18.9531 20.9555 18.9324 20.9969C18.3539 21.0382 17.5687 21.0588 16.5769 21.0588C15.5851 21.0588 14.8206 20.8935 14.2834 20.5629C13.7668 20.2323 13.3846 19.8914 13.1366 19.5402L9.54133 14.7361C9.47935 14.6741 9.40703 14.6431 9.32438 14.6431C9.24173 14.6431 9.16941 14.6845 9.10742 14.7671V14.0233Z" fill="#1C1C1C"/>
</svg>
